<svg width="157" height="40" viewBox="0 0 157 40" fill="none" xmlns="http://www.w3.org/2000/svg">
<g clip-path="url(#clip0_1_1708)">
<path d="M121.963 13.8403C119.232 11.3158 115.059 10.0552 109.442 10.0552C103.825 10.0552 99.6609 11.3191 96.9499 13.8403C94.239 16.3647 92.8868 20.0943 92.8868 25.0259C92.8868 29.9575 94.2422 33.6904 96.9499 36.2116C99.6576 38.736 103.822 39.9966 109.442 39.9966C115.062 39.9966 119.232 38.736 121.963 36.2116C124.69 33.6872 126.055 29.9608 126.055 25.0259C126.055 20.0911 124.69 16.3614 121.963 13.8403ZM117.542 32.4852C115.767 34.179 113.069 35.0292 109.445 35.0292C105.821 35.0292 103.129 34.1823 101.377 32.4852C99.6251 30.7914 98.7475 28.3028 98.7475 25.0259C98.7475 21.749 99.6023 19.2637 101.319 17.5666C103.032 15.8728 105.743 15.0227 109.448 15.0227C113.154 15.0227 115.774 15.8696 117.545 17.5666C119.317 19.2604 120.204 21.749 120.204 25.0259C120.204 28.3028 119.317 30.7881 117.545 32.4852H117.542Z" fill="white"/>
<path d="M128.938 13.7556C129.555 12.7067 130.453 11.8338 131.626 11.1367C132.799 10.4396 134.236 9.93476 135.93 9.62531C137.623 9.31587 139.564 9.15952 141.758 9.15952C146.819 9.15952 150.564 10.0032 152.995 11.6905C155.283 13.28 156.496 15.8077 156.629 19.2735C156.642 19.6481 156.392 19.9836 156.028 20.0716L152.182 21.0032C151.672 21.1269 151.181 20.7263 151.214 20.2019C151.288 18.912 151.162 17.6188 150.788 17.0129C150.31 16.2377 149.621 15.6253 148.727 15.1791C147.83 14.7328 146.734 14.4136 145.441 14.2181C144.147 14.0227 142.642 13.9282 140.929 13.9282C139.216 13.9282 137.971 14.0357 136.954 14.2475C135.936 14.4624 135.14 14.7328 134.564 15.0618C133.986 15.3908 133.599 15.7686 133.401 16.1953C133.203 16.6221 133.102 17.0488 133.102 17.4755C133.102 17.9413 133.271 18.3875 133.609 18.8142C133.947 19.2409 134.496 19.6383 135.254 20.0064C136.011 20.3745 137.015 20.7426 138.273 21.1107C139.528 21.4787 141.072 21.837 142.905 22.1888C145.096 22.5765 147.059 22.9641 148.792 23.3517C150.525 23.7393 152 24.254 153.216 24.8924C154.432 25.5341 155.368 26.368 156.024 27.394C156.681 28.4234 157.009 29.7719 157.009 31.4396C157.009 34.5439 155.846 36.7458 153.512 38.0455C151.181 39.3452 147.784 39.9934 143.321 39.9934C137.942 39.9934 134.028 39.1497 131.577 37.4624C129.276 35.8761 128.2 34.6188 127.813 31.2149C127.768 30.824 128.028 30.4592 128.411 30.368L132.195 29.4494C132.643 29.3419 133.095 29.6416 133.157 30.1009C133.258 30.8533 133.498 31.5146 133.879 32.0813C134.395 32.8566 135.133 33.4787 136.089 33.9445C137.045 34.4103 138.189 34.7393 139.525 34.9348C140.861 35.1302 142.323 35.2247 143.916 35.2247C145.389 35.2247 146.637 35.1367 147.651 34.9641C148.668 34.7882 149.494 34.5471 150.131 34.2377C150.768 33.9282 151.227 33.5406 151.506 33.0748C151.786 32.609 151.925 32.1237 151.925 31.6188C151.925 30.8045 151.695 30.1628 151.24 29.697C150.781 29.2312 150.115 28.8533 149.237 28.5634C148.36 28.2735 147.284 28.0195 146.01 27.8077C144.735 27.596 143.24 27.3322 141.527 27.0227C139.892 26.7523 138.28 26.4038 136.687 25.9738C135.094 25.5471 133.648 24.9836 132.354 24.2866C131.06 23.5895 130.014 22.697 129.217 21.609C128.421 20.5243 128.021 19.166 128.021 17.5341C128.021 16.0585 128.33 14.798 128.948 13.7523L128.938 13.7556Z" fill="white"/>
<path d="M56.2955 38.9934C56.2955 39.5048 56.7766 39.8826 57.2706 39.7589L61.2558 38.7654C61.6068 38.6774 61.8506 38.3615 61.8506 37.9999V17.1823L56.2922 18.723V38.9934H56.2955Z" fill="white"/>
<path d="M93.4977 10.4722L88.1701 11.8012C87.9328 11.8598 87.7377 12.026 87.6402 12.2507L78.6785 32.9576L70.7765 14.7002L65.2929 16.2214L75.2005 39.0032C75.4638 39.6058 76.0586 39.9966 76.7152 39.9966H80.6484C81.305 39.9966 81.8998 39.6058 82.1631 39.0032L94.2063 11.3061C94.4078 10.8436 93.9917 10.3484 93.5009 10.4722H93.4977Z" fill="white"/>
<path d="M30.0116 15.0651C29.8068 14.9055 29.5565 14.8208 29.2997 14.8208C29.2055 14.8208 29.108 14.8338 29.0137 14.8566L27.72 15.1856C27.6225 13.7687 27.3592 12.4788 26.9269 11.3452C26.3515 9.83055 25.4576 8.57648 24.2777 7.61231C23.127 6.6742 21.6935 5.96736 20.0098 5.50808C18.3845 5.06508 16.4537 4.83707 14.2693 4.83707C12.4036 4.83707 10.684 5.03251 9.15303 5.42339C7.55703 5.82729 6.16581 6.48853 5.01512 7.38756C3.83844 8.30612 2.92829 9.48853 2.31394 10.9022V10.912C1.72885 12.2475 1.44605 13.0227 1.4103 16.0325C1.4038 16.4885 1.57608 16.9152 1.89788 17.2377C2.21318 17.5569 2.64875 17.7393 3.09407 17.7393C3.22734 17.7393 3.36386 17.7231 3.49388 17.6905L6.04879 17.0651C6.78015 16.8859 7.30674 16.2345 7.32949 15.482C7.36525 14.3941 7.55703 13.5244 7.90808 12.9022C8.28514 12.2279 8.76947 11.7459 9.38382 11.4299C10.0729 11.0781 10.8335 10.8534 11.6494 10.7654C12.5628 10.6644 13.4762 10.6156 14.3734 10.6156C15.199 10.6156 16.0994 10.6677 17.0485 10.7654C17.8839 10.8534 18.664 11.0911 19.3629 11.469C20.0358 11.8338 20.5916 12.3615 21.0629 13.0781C21.5082 13.7556 21.7325 14.7719 21.7325 16.1042V17.5016C21.7325 17.5341 21.7293 17.5667 21.7293 17.596V21.4462C21.7293 21.4788 21.7293 21.5113 21.7325 21.5406V28.4266C21.7325 28.8534 21.622 29.3843 21.4042 30.0097C21.2059 30.5765 20.8191 31.1302 20.247 31.6612C19.6457 32.2182 18.7811 32.7133 17.6759 33.127C16.5577 33.5472 15.0592 33.7589 13.2227 33.7589C11.6722 33.7589 10.4012 33.6547 9.44558 33.4462C8.55169 33.2507 7.85283 32.9869 7.37175 32.6547C6.95893 32.3713 6.68914 32.0683 6.56887 31.7524C6.41285 31.3485 6.33158 30.8794 6.33158 30.3648C6.33158 30.3257 6.33158 30.2345 6.33158 30.2117V30.1954L6.33483 30.0749C6.33483 30.0651 6.33483 30.0553 6.33483 30.0455C6.36409 27.1954 8.15187 26.4885 10.6775 25.8012C10.9538 25.7263 11.2171 25.6547 11.4642 25.5797L11.8055 25.495C12.7123 25.267 12.9854 25.1986 13.7233 25.039C13.7363 25.039 13.7493 25.0325 13.7655 25.0292L17.7962 23.9902C18.3065 23.8566 18.664 23.3973 18.664 22.8664V18.9967C18.664 18.6416 18.5015 18.3061 18.2252 18.0879C18.0204 17.925 17.7669 17.8371 17.5069 17.8371C17.4191 17.8371 17.3281 17.8468 17.2403 17.8696L13.4145 18.7784C11.5324 19.2019 9.2798 19.8273 7.7228 20.2768C7.47902 20.3485 7.22873 20.4266 6.93618 20.5244C6.92318 20.5276 6.91017 20.5341 6.89717 20.5374C4.65757 21.3745 0.799202 23.5537 0.123094 28.7165C0.123094 28.7328 0.119843 28.7491 0.116593 28.7654C0.0873383 29.0814 0.0645847 29.2996 0.0450816 29.4722C0.00932589 29.8175 -0.0134277 30.026 -0.0134277 30.4201C-0.0134277 32.1465 0.314875 33.6253 0.961727 34.824C1.61508 36.0358 2.56098 37.013 3.76692 37.7296C4.91111 38.4104 6.30233 38.8924 7.90158 39.1595C9.42607 39.4136 11.1228 39.5407 12.9529 39.5407C15.5728 39.5407 17.6141 39.254 19.1841 38.6644C19.4117 38.5928 20.5038 38.2182 21.726 37.4592V37.5341C21.726 38.5504 22.5517 39.3778 23.5626 39.3778C23.7121 39.3778 23.8616 39.3582 24.0111 39.3224L26.358 38.7361C27.1772 38.5309 27.7525 37.7947 27.7525 36.9478V21.368L29.5923 20.8696C30.0961 20.7328 30.4472 20.2735 30.4472 19.7491V15.9804C30.4472 15.6221 30.2814 15.2833 30.0019 15.0651H30.0116Z" fill="white"/>
<path d="M72.0602 6.3517L71.0526 5.10089C70.773 4.75561 70.3602 4.55692 69.9181 4.55692C69.8531 4.55692 69.7881 4.56017 69.7264 4.56994C69.6841 4.57646 69.6418 4.58297 69.5996 4.596L68.6699 4.83053L62.5817 6.36473L39.2983 12.3387V6.24747C39.2983 5.31587 38.5441 4.56017 37.6145 4.56017C37.478 4.56017 37.3414 4.57646 37.2082 4.60903L34.4972 5.2833C33.7431 5.46897 33.2198 6.14323 33.2198 6.92174V28.798C33.2198 30.6937 33.4408 32.3322 33.8796 33.6644C34.3315 35.0488 34.9946 36.1954 35.8495 37.0716C36.7108 37.9576 37.7705 38.6025 38.9927 38.9901C40.1466 39.355 41.4241 39.5406 42.7893 39.5406C44.2943 39.5406 45.6693 39.3452 46.8752 38.9641C48.1559 38.5569 49.2741 37.8533 50.1907 36.8729C51.0944 35.9087 51.79 34.6351 52.2581 33.0911C52.6871 31.6742 53.1617 29.0944 53.191 27.0976C53.1975 26.6416 53.0252 26.2149 52.7099 25.8892C52.3946 25.5699 51.959 25.3843 51.5105 25.3843C51.3739 25.3843 51.2374 25.4006 51.1041 25.4331L48.6305 26.0488C47.7691 26.2638 47.1678 26.9673 47.067 27.8827C47.0637 27.912 47.0605 27.9413 47.0605 27.9706C47.0605 28.0227 47.0572 28.0781 47.054 28.1302C47.054 28.1302 47.054 28.1302 47.054 28.1335C47.0085 29.1856 46.872 30.127 46.6834 30.7165C46.4396 31.4787 46.1243 32.0781 45.7505 32.4918C45.3897 32.8924 44.9932 33.1693 44.5446 33.3289C44.0473 33.5081 43.4947 33.5993 42.8998 33.5993C42.0254 33.5993 41.3558 33.4462 40.9105 33.1432C40.4392 32.824 40.1109 32.4494 39.9029 31.9967C39.6591 31.469 39.4998 30.8338 39.4283 30.1107C39.347 29.2996 39.3048 28.5048 39.3048 27.7393V18.4201L63.1571 12.2605L69.4241 10.6677L70.1587 10.482C70.5617 10.4006 70.9095 10.1563 71.1208 9.79796L72.1838 8.00968C72.4958 7.48851 72.447 6.8175 72.0667 6.34519L72.0602 6.3517Z" fill="white"/>
<path d="M74.0661 10.7849L75.8701 6.62533C75.9936 6.41686 75.9741 6.15302 75.8246 5.96083L73.0974 2.55367C72.8309 2.22142 72.9999 1.72305 73.4127 1.62207L79.0914 0.0162097C79.3124 -0.0391649 79.5432 0.039011 79.6862 0.218164L82.6669 3.93803C82.8197 4.12696 82.836 4.3908 82.7124 4.60253L80.307 9.77517C80.229 9.90872 80.1023 10.0032 79.9527 10.0423L74.7162 11.6481C74.2123 11.7784 73.8028 11.2345 74.0693 10.7849H74.0661Z" fill="#5F72D9"/>
</g>
<defs>
<clipPath id="clip0_1_1708">
<rect width="157" height="40" fill="white"/>
</clipPath>
</defs>
</svg>
